*
%FSLAX26Y26*%
%MOIN*%
%ADD10C,0.009843*%
%ADD11C,0.029528*%
%ADD12C,0.045276*%
%ADD13C,0.084646*%
%IPPOS*%
%LN12025-132611.drl*%
%LPD*%
G75*
G54D10*
X135200Y66700D03*
X92000Y75000D03*
X185000Y75600D03*
X161000Y131000D03*
X76000Y151000D03*
X275000Y154000D03*
X168000Y179000D03*
X191000Y206000D03*
X76000Y222000D03*
X152000D03*
X249000Y246000D03*
X203100Y253500D03*
X69000Y282000D03*
X190000Y311000D03*
X118700Y316300D03*
X209000Y327000D03*
X159000D03*
X80000Y362000D03*
X235000Y372000D03*
X135200Y381000D03*
X241000Y404000D03*
X74000Y415000D03*
X279000Y492000D03*
X230000Y498000D03*
X149000Y512000D03*
X279000Y516000D03*
X230000Y531000D03*
X179000Y540000D03*
X100000Y542000D03*
X254000Y555000D03*
X230000D03*
X100000Y568000D03*
X242000Y576000D03*
X68000Y581000D03*
Y627000D03*
Y673000D03*
Y719000D03*
X167000Y726000D03*
X118000Y727000D03*
X145000Y753000D03*
X201000D03*
X229000D03*
X257000D03*
X32000D03*
X60000D03*
X117000D03*
X173000D03*
X287000Y972000D03*
Y944000D03*
X406000Y936000D03*
X428000D03*
X505000Y925000D03*
X287000Y916000D03*
X379000Y889000D03*
X287000Y888000D03*
X379000Y868000D03*
X287000Y860000D03*
X430000Y846000D03*
X287000Y832000D03*
X392000Y812000D03*
X328000Y808000D03*
X287000Y804000D03*
X403000Y789000D03*
X328000Y784000D03*
X350000D03*
X372000D03*
X287000Y776000D03*
X516000Y769020D03*
X298000Y715000D03*
X408000D03*
X374000Y714000D03*
X507800Y709300D03*
X503310Y673460D03*
X345000Y646000D03*
X503300Y643300D03*
X415000Y642000D03*
X440800Y610800D03*
X345000Y607400D03*
X408000Y555200D03*
X441000Y548000D03*
X508300Y543800D03*
X383300Y542600D03*
X345000Y523000D03*
X425300Y516800D03*
X500300Y487300D03*
X407000Y454000D03*
X372000Y446000D03*
X342000D03*
X411000Y430000D03*
X342000Y421000D03*
X315000Y418700D03*
X342000Y392000D03*
X285000Y391000D03*
X502300Y359300D03*
X342000Y359000D03*
X314000D03*
X378000Y358300D03*
X438000Y358000D03*
X378000Y327000D03*
X314000D03*
X342000D03*
Y296300D03*
X353000Y267700D03*
X424200Y252000D03*
X389800Y228900D03*
X440000Y204000D03*
X362400Y203000D03*
X503000Y92000D03*
X403000Y83000D03*
X286000Y80000D03*
X345000Y79000D03*
X426000Y70000D03*
X677000Y71000D03*
X725800Y91300D03*
X586000Y92000D03*
X660600Y163900D03*
X769800Y164300D03*
X747800Y182300D03*
X725300Y238300D03*
X575000Y253000D03*
X549300Y259300D03*
X627300Y295800D03*
X549000Y299000D03*
X722300Y301300D03*
X701300Y321300D03*
X567300Y328300D03*
X595000Y390000D03*
X627300Y390300D03*
X738800Y421300D03*
X595000Y422000D03*
X537000D03*
Y452000D03*
X565000D03*
X595000D03*
X627000D03*
X757300Y487300D03*
X537800Y515800D03*
X627300Y516300D03*
X596300D03*
X568300D03*
X568000Y548000D03*
X627300Y548300D03*
X596300D03*
Y578300D03*
X627300Y579300D03*
X568300Y579800D03*
X655300Y588300D03*
X686500Y588600D03*
X627000Y611000D03*
X596300Y611300D03*
X561500Y622600D03*
X702780Y646650D03*
X533300Y674300D03*
X750800Y698100D03*
X533800Y708300D03*
X671000Y744000D03*
X694000D03*
X570000Y755000D03*
X607000Y782000D03*
X740000Y814000D03*
X736000Y841000D03*
X652000Y851500D03*
X589000Y856000D03*
X730000Y915000D03*
X704000D03*
X558000Y925000D03*
X658000Y926000D03*
X902000Y911000D03*
X833000Y864000D03*
X965000Y842000D03*
X848000Y835000D03*
X965000Y800000D03*
X874000Y791000D03*
X852000Y767000D03*
X827800D03*
X965000Y740000D03*
Y658000D03*
X811800Y623300D03*
X792800Y607300D03*
X901640Y564120D03*
X891210Y538330D03*
X850800Y516300D03*
X965000Y516000D03*
X899300Y501300D03*
X810000Y430000D03*
X850000Y410000D03*
X965000Y406600D03*
X890000Y390000D03*
X965000Y265000D03*
Y218000D03*
X791800Y201300D03*
X965000Y186300D03*
X801300Y146300D03*
X965000Y139000D03*
X835300Y127300D03*
X860000Y127000D03*
X818300Y108300D03*
X925000Y77000D03*
X965000D03*
G54D11*
X101000Y30000D03*
X151000D03*
X201000D03*
X251000D03*
X31000Y100000D03*
Y150000D03*
Y200000D03*
Y250000D03*
Y300000D03*
Y350000D03*
Y400000D03*
Y450000D03*
Y500000D03*
Y550000D03*
Y600000D03*
Y650000D03*
Y700000D03*
X400130Y969060D03*
X451000Y969000D03*
X501000D03*
X351000D03*
X501000Y30000D03*
X301000D03*
X351000D03*
X401000D03*
X451000D03*
X651000D03*
X601000D03*
X551000D03*
X751000D03*
X701000D03*
X700130Y969060D03*
X750130D03*
X550130D03*
X600130D03*
X650130D03*
X850130D03*
X900130D03*
X800130D03*
X851000Y30000D03*
X951000D03*
X901000D03*
X801000D03*
G54D12*
X36000Y36000D03*
X964000Y964000D03*
G54D10*
X135200Y1066700D03*
X92000Y1075000D03*
X185000Y1075600D03*
X161000Y1131000D03*
X76000Y1151000D03*
X275000Y1154000D03*
X168000Y1179000D03*
X191000Y1206000D03*
X76000Y1222000D03*
X152000D03*
X249000Y1246000D03*
X203100Y1253500D03*
X69000Y1282000D03*
X190000Y1311000D03*
X118700Y1316300D03*
X209000Y1327000D03*
X159000D03*
X80000Y1362000D03*
X235000Y1372000D03*
X135200Y1381000D03*
X241000Y1404000D03*
X74000Y1415000D03*
X279000Y1492000D03*
X230000Y1498000D03*
X149000Y1512000D03*
X279000Y1516000D03*
X230000Y1531000D03*
X179000Y1540000D03*
X100000Y1542000D03*
X254000Y1555000D03*
X230000D03*
X100000Y1568000D03*
X242000Y1576000D03*
X68000Y1581000D03*
Y1627000D03*
Y1673000D03*
Y1719000D03*
X167000Y1726000D03*
X118000Y1727000D03*
X145000Y1753000D03*
X201000D03*
X229000D03*
X257000D03*
X32000D03*
X60000D03*
X117000D03*
X173000D03*
X287000Y1972000D03*
Y1944000D03*
X406000Y1936000D03*
X428000D03*
X505000Y1925000D03*
X287000Y1916000D03*
X379000Y1889000D03*
X287000Y1888000D03*
X379000Y1868000D03*
X287000Y1860000D03*
X430000Y1846000D03*
X287000Y1832000D03*
X392000Y1812000D03*
X328000Y1808000D03*
X287000Y1804000D03*
X403000Y1789000D03*
X328000Y1784000D03*
X350000D03*
X372000D03*
X287000Y1776000D03*
X516000Y1769020D03*
X298000Y1715000D03*
X408000D03*
X374000Y1714000D03*
X507800Y1709300D03*
X503310Y1673460D03*
X345000Y1646000D03*
X503300Y1643300D03*
X415000Y1642000D03*
X440800Y1610800D03*
X345000Y1607400D03*
X408000Y1555200D03*
X441000Y1548000D03*
X508300Y1543800D03*
X383300Y1542600D03*
X345000Y1523000D03*
X425300Y1516800D03*
X500300Y1487300D03*
X407000Y1454000D03*
X372000Y1446000D03*
X342000D03*
X411000Y1430000D03*
X342000Y1421000D03*
X315000Y1418700D03*
X342000Y1392000D03*
X285000Y1391000D03*
X502300Y1359300D03*
X342000Y1359000D03*
X314000D03*
X378000Y1358300D03*
X438000Y1358000D03*
X378000Y1327000D03*
X314000D03*
X342000D03*
Y1296300D03*
X353000Y1267700D03*
X424200Y1252000D03*
X389800Y1228900D03*
X440000Y1204000D03*
X362400Y1203000D03*
X503000Y1092000D03*
X403000Y1083000D03*
X286000Y1080000D03*
X345000Y1079000D03*
X426000Y1070000D03*
X677000Y1071000D03*
X725800Y1091300D03*
X586000Y1092000D03*
X660600Y1163900D03*
X769800Y1164300D03*
X747800Y1182300D03*
X725300Y1238300D03*
X575000Y1253000D03*
X549300Y1259300D03*
X627300Y1295800D03*
X549000Y1299000D03*
X722300Y1301300D03*
X701300Y1321300D03*
X567300Y1328300D03*
X595000Y1390000D03*
X627300Y1390300D03*
X738800Y1421300D03*
X595000Y1422000D03*
X537000D03*
Y1452000D03*
X565000D03*
X595000D03*
X627000D03*
X757300Y1487300D03*
X537800Y1515800D03*
X627300Y1516300D03*
X596300D03*
X568300D03*
X568000Y1548000D03*
X627300Y1548300D03*
X596300D03*
Y1578300D03*
X627300Y1579300D03*
X568300Y1579800D03*
X655300Y1588300D03*
X686500Y1588600D03*
X627000Y1611000D03*
X596300Y1611300D03*
X561500Y1622600D03*
X702780Y1646650D03*
X533300Y1674300D03*
X750800Y1698100D03*
X533800Y1708300D03*
X671000Y1744000D03*
X694000D03*
X570000Y1755000D03*
X607000Y1782000D03*
X740000Y1814000D03*
X736000Y1841000D03*
X652000Y1851500D03*
X589000Y1856000D03*
X730000Y1915000D03*
X704000D03*
X558000Y1925000D03*
X658000Y1926000D03*
X902000Y1911000D03*
X833000Y1864000D03*
X965000Y1842000D03*
X848000Y1835000D03*
X965000Y1800000D03*
X874000Y1791000D03*
X852000Y1767000D03*
X827800D03*
X965000Y1740000D03*
Y1658000D03*
X811800Y1623300D03*
X792800Y1607300D03*
X901640Y1564120D03*
X891210Y1538330D03*
X850800Y1516300D03*
X965000Y1516000D03*
X899300Y1501300D03*
X810000Y1430000D03*
X850000Y1410000D03*
X965000Y1406600D03*
X890000Y1390000D03*
X965000Y1265000D03*
Y1218000D03*
X791800Y1201300D03*
X965000Y1186300D03*
X801300Y1146300D03*
X965000Y1139000D03*
X835300Y1127300D03*
X860000Y1127000D03*
X818300Y1108300D03*
X925000Y1077000D03*
X965000D03*
G54D11*
X101000Y1030000D03*
X151000D03*
X201000D03*
X251000D03*
X31000Y1100000D03*
Y1150000D03*
Y1200000D03*
Y1250000D03*
Y1300000D03*
Y1350000D03*
Y1400000D03*
Y1450000D03*
Y1500000D03*
Y1550000D03*
Y1600000D03*
Y1650000D03*
Y1700000D03*
X400130Y1969060D03*
X451000Y1969000D03*
X501000D03*
X351000D03*
X501000Y1030000D03*
X301000D03*
X351000D03*
X401000D03*
X451000D03*
X651000D03*
X601000D03*
X551000D03*
X751000D03*
X701000D03*
X700130Y1969060D03*
X750130D03*
X550130D03*
X600130D03*
X650130D03*
X850130D03*
X900130D03*
X800130D03*
X851000Y1030000D03*
X951000D03*
X901000D03*
X801000D03*
G54D12*
X36000Y1036000D03*
X964000Y1964000D03*
G54D10*
X135200Y2066700D03*
X92000Y2075000D03*
X185000Y2075600D03*
X161000Y2131000D03*
X76000Y2151000D03*
X275000Y2154000D03*
X168000Y2179000D03*
X191000Y2206000D03*
X76000Y2222000D03*
X152000D03*
X249000Y2246000D03*
X203100Y2253500D03*
X69000Y2282000D03*
X190000Y2311000D03*
X118700Y2316300D03*
X209000Y2327000D03*
X159000D03*
X80000Y2362000D03*
X235000Y2372000D03*
X135200Y2381000D03*
X241000Y2404000D03*
X74000Y2415000D03*
X279000Y2492000D03*
X230000Y2498000D03*
X149000Y2512000D03*
X279000Y2516000D03*
X230000Y2531000D03*
X179000Y2540000D03*
X100000Y2542000D03*
X254000Y2555000D03*
X230000D03*
X100000Y2568000D03*
X242000Y2576000D03*
X68000Y2581000D03*
Y2627000D03*
Y2673000D03*
Y2719000D03*
X167000Y2726000D03*
X118000Y2727000D03*
X145000Y2753000D03*
X201000D03*
X229000D03*
X257000D03*
X32000D03*
X60000D03*
X117000D03*
X173000D03*
X287000Y2972000D03*
Y2944000D03*
X406000Y2936000D03*
X428000D03*
X505000Y2925000D03*
X287000Y2916000D03*
X379000Y2889000D03*
X287000Y2888000D03*
X379000Y2868000D03*
X287000Y2860000D03*
X430000Y2846000D03*
X287000Y2832000D03*
X392000Y2812000D03*
X328000Y2808000D03*
X287000Y2804000D03*
X403000Y2789000D03*
X328000Y2784000D03*
X350000D03*
X372000D03*
X287000Y2776000D03*
X516000Y2769020D03*
X298000Y2715000D03*
X408000D03*
X374000Y2714000D03*
X507800Y2709300D03*
X503310Y2673460D03*
X345000Y2646000D03*
X503300Y2643300D03*
X415000Y2642000D03*
X440800Y2610800D03*
X345000Y2607400D03*
X408000Y2555200D03*
X441000Y2548000D03*
X508300Y2543800D03*
X383300Y2542600D03*
X345000Y2523000D03*
X425300Y2516800D03*
X500300Y2487300D03*
X407000Y2454000D03*
X372000Y2446000D03*
X342000D03*
X411000Y2430000D03*
X342000Y2421000D03*
X315000Y2418700D03*
X342000Y2392000D03*
X285000Y2391000D03*
X502300Y2359300D03*
X342000Y2359000D03*
X314000D03*
X378000Y2358300D03*
X438000Y2358000D03*
X378000Y2327000D03*
X314000D03*
X342000D03*
Y2296300D03*
X353000Y2267700D03*
X424200Y2252000D03*
X389800Y2228900D03*
X440000Y2204000D03*
X362400Y2203000D03*
X503000Y2092000D03*
X403000Y2083000D03*
X286000Y2080000D03*
X345000Y2079000D03*
X426000Y2070000D03*
X677000Y2071000D03*
X725800Y2091300D03*
X586000Y2092000D03*
X660600Y2163900D03*
X769800Y2164300D03*
X747800Y2182300D03*
X725300Y2238300D03*
X575000Y2253000D03*
X549300Y2259300D03*
X627300Y2295800D03*
X549000Y2299000D03*
X722300Y2301300D03*
X701300Y2321300D03*
X567300Y2328300D03*
X595000Y2390000D03*
X627300Y2390300D03*
X738800Y2421300D03*
X595000Y2422000D03*
X537000D03*
Y2452000D03*
X565000D03*
X595000D03*
X627000D03*
X757300Y2487300D03*
X537800Y2515800D03*
X627300Y2516300D03*
X596300D03*
X568300D03*
X568000Y2548000D03*
X627300Y2548300D03*
X596300D03*
Y2578300D03*
X627300Y2579300D03*
X568300Y2579800D03*
X655300Y2588300D03*
X686500Y2588600D03*
X627000Y2611000D03*
X596300Y2611300D03*
X561500Y2622600D03*
X702780Y2646650D03*
X533300Y2674300D03*
X750800Y2698100D03*
X533800Y2708300D03*
X671000Y2744000D03*
X694000D03*
X570000Y2755000D03*
X607000Y2782000D03*
X740000Y2814000D03*
X736000Y2841000D03*
X652000Y2851500D03*
X589000Y2856000D03*
X730000Y2915000D03*
X704000D03*
X558000Y2925000D03*
X658000Y2926000D03*
X902000Y2911000D03*
X833000Y2864000D03*
X965000Y2842000D03*
X848000Y2835000D03*
X965000Y2800000D03*
X874000Y2791000D03*
X852000Y2767000D03*
X827800D03*
X965000Y2740000D03*
Y2658000D03*
X811800Y2623300D03*
X792800Y2607300D03*
X901640Y2564120D03*
X891210Y2538330D03*
X850800Y2516300D03*
X965000Y2516000D03*
X899300Y2501300D03*
X810000Y2430000D03*
X850000Y2410000D03*
X965000Y2406600D03*
X890000Y2390000D03*
X965000Y2265000D03*
Y2218000D03*
X791800Y2201300D03*
X965000Y2186300D03*
X801300Y2146300D03*
X965000Y2139000D03*
X835300Y2127300D03*
X860000Y2127000D03*
X818300Y2108300D03*
X925000Y2077000D03*
X965000D03*
G54D11*
X101000Y2030000D03*
X151000D03*
X201000D03*
X251000D03*
X31000Y2100000D03*
Y2150000D03*
Y2200000D03*
Y2250000D03*
Y2300000D03*
Y2350000D03*
Y2400000D03*
Y2450000D03*
Y2500000D03*
Y2550000D03*
Y2600000D03*
Y2650000D03*
Y2700000D03*
X400130Y2969060D03*
X451000Y2969000D03*
X501000D03*
X351000D03*
X501000Y2030000D03*
X301000D03*
X351000D03*
X401000D03*
X451000D03*
X651000D03*
X601000D03*
X551000D03*
X751000D03*
X701000D03*
X700130Y2969060D03*
X750130D03*
X550130D03*
X600130D03*
X650130D03*
X850130D03*
X900130D03*
X800130D03*
X851000Y2030000D03*
X951000D03*
X901000D03*
X801000D03*
G54D12*
X36000Y2036000D03*
X964000Y2964000D03*
G54D10*
X135200Y3066700D03*
X92000Y3075000D03*
X185000Y3075600D03*
X161000Y3131000D03*
X76000Y3151000D03*
X275000Y3154000D03*
X168000Y3179000D03*
X191000Y3206000D03*
X76000Y3222000D03*
X152000D03*
X249000Y3246000D03*
X203100Y3253500D03*
X69000Y3282000D03*
X190000Y3311000D03*
X118700Y3316300D03*
X209000Y3327000D03*
X159000D03*
X80000Y3362000D03*
X235000Y3372000D03*
X135200Y3381000D03*
X241000Y3404000D03*
X74000Y3415000D03*
X279000Y3492000D03*
X230000Y3498000D03*
X149000Y3512000D03*
X279000Y3516000D03*
X230000Y3531000D03*
X179000Y3540000D03*
X100000Y3542000D03*
X254000Y3555000D03*
X230000D03*
X100000Y3568000D03*
X242000Y3576000D03*
X68000Y3581000D03*
Y3627000D03*
Y3673000D03*
Y3719000D03*
X167000Y3726000D03*
X118000Y3727000D03*
X145000Y3753000D03*
X201000D03*
X229000D03*
X257000D03*
X32000D03*
X60000D03*
X117000D03*
X173000D03*
X287000Y3972000D03*
Y3944000D03*
X406000Y3936000D03*
X428000D03*
X505000Y3925000D03*
X287000Y3916000D03*
X379000Y3889000D03*
X287000Y3888000D03*
X379000Y3868000D03*
X287000Y3860000D03*
X430000Y3846000D03*
X287000Y3832000D03*
X392000Y3812000D03*
X328000Y3808000D03*
X287000Y3804000D03*
X403000Y3789000D03*
X328000Y3784000D03*
X350000D03*
X372000D03*
X287000Y3776000D03*
X516000Y3769020D03*
X298000Y3715000D03*
X408000D03*
X374000Y3714000D03*
X507800Y3709300D03*
X503310Y3673460D03*
X345000Y3646000D03*
X503300Y3643300D03*
X415000Y3642000D03*
X440800Y3610800D03*
X345000Y3607400D03*
X408000Y3555200D03*
X441000Y3548000D03*
X508300Y3543800D03*
X383300Y3542600D03*
X345000Y3523000D03*
X425300Y3516800D03*
X500300Y3487300D03*
X407000Y3454000D03*
X372000Y3446000D03*
X342000D03*
X411000Y3430000D03*
X342000Y3421000D03*
X315000Y3418700D03*
X342000Y3392000D03*
X285000Y3391000D03*
X502300Y3359300D03*
X342000Y3359000D03*
X314000D03*
X378000Y3358300D03*
X438000Y3358000D03*
X378000Y3327000D03*
X314000D03*
X342000D03*
Y3296300D03*
X353000Y3267700D03*
X424200Y3252000D03*
X389800Y3228900D03*
X440000Y3204000D03*
X362400Y3203000D03*
X503000Y3092000D03*
X403000Y3083000D03*
X286000Y3080000D03*
X345000Y3079000D03*
X426000Y3070000D03*
X677000Y3071000D03*
X725800Y3091300D03*
X586000Y3092000D03*
X660600Y3163900D03*
X769800Y3164300D03*
X747800Y3182300D03*
X725300Y3238300D03*
X575000Y3253000D03*
X549300Y3259300D03*
X627300Y3295800D03*
X549000Y3299000D03*
X722300Y3301300D03*
X701300Y3321300D03*
X567300Y3328300D03*
X595000Y3390000D03*
X627300Y3390300D03*
X738800Y3421300D03*
X595000Y3422000D03*
X537000D03*
Y3452000D03*
X565000D03*
X595000D03*
X627000D03*
X757300Y3487300D03*
X537800Y3515800D03*
X627300Y3516300D03*
X596300D03*
X568300D03*
X568000Y3548000D03*
X627300Y3548300D03*
X596300D03*
Y3578300D03*
X627300Y3579300D03*
X568300Y3579800D03*
X655300Y3588300D03*
X686500Y3588600D03*
X627000Y3611000D03*
X596300Y3611300D03*
X561500Y3622600D03*
X702780Y3646650D03*
X533300Y3674300D03*
X750800Y3698100D03*
X533800Y3708300D03*
X671000Y3744000D03*
X694000D03*
X570000Y3755000D03*
X607000Y3782000D03*
X740000Y3814000D03*
X736000Y3841000D03*
X652000Y3851500D03*
X589000Y3856000D03*
X730000Y3915000D03*
X704000D03*
X558000Y3925000D03*
X658000Y3926000D03*
X902000Y3911000D03*
X833000Y3864000D03*
X965000Y3842000D03*
X848000Y3835000D03*
X965000Y3800000D03*
X874000Y3791000D03*
X852000Y3767000D03*
X827800D03*
X965000Y3740000D03*
Y3658000D03*
X811800Y3623300D03*
X792800Y3607300D03*
X901640Y3564120D03*
X891210Y3538330D03*
X850800Y3516300D03*
X965000Y3516000D03*
X899300Y3501300D03*
X810000Y3430000D03*
X850000Y3410000D03*
X965000Y3406600D03*
X890000Y3390000D03*
X965000Y3265000D03*
Y3218000D03*
X791800Y3201300D03*
X965000Y3186300D03*
X801300Y3146300D03*
X965000Y3139000D03*
X835300Y3127300D03*
X860000Y3127000D03*
X818300Y3108300D03*
X925000Y3077000D03*
X965000D03*
G54D11*
X101000Y3030000D03*
X151000D03*
X201000D03*
X251000D03*
X31000Y3100000D03*
Y3150000D03*
Y3200000D03*
Y3250000D03*
Y3300000D03*
Y3350000D03*
Y3400000D03*
Y3450000D03*
Y3500000D03*
Y3550000D03*
Y3600000D03*
Y3650000D03*
Y3700000D03*
X400130Y3969060D03*
X451000Y3969000D03*
X501000D03*
X351000D03*
X501000Y3030000D03*
X301000D03*
X351000D03*
X401000D03*
X451000D03*
X651000D03*
X601000D03*
X551000D03*
X751000D03*
X701000D03*
X700130Y3969060D03*
X750130D03*
X550130D03*
X600130D03*
X650130D03*
X850130D03*
X900130D03*
X800130D03*
X851000Y3030000D03*
X951000D03*
X901000D03*
X801000D03*
G54D12*
X36000Y3036000D03*
X964000Y3964000D03*
G54D10*
X135200Y4066700D03*
X92000Y4075000D03*
X185000Y4075600D03*
X161000Y4131000D03*
X76000Y4151000D03*
X275000Y4154000D03*
X168000Y4179000D03*
X191000Y4206000D03*
X76000Y4222000D03*
X152000D03*
X249000Y4246000D03*
X203100Y4253500D03*
X69000Y4282000D03*
X190000Y4311000D03*
X118700Y4316300D03*
X209000Y4327000D03*
X159000D03*
X80000Y4362000D03*
X235000Y4372000D03*
X135200Y4381000D03*
X241000Y4404000D03*
X74000Y4415000D03*
X279000Y4492000D03*
X230000Y4498000D03*
X149000Y4512000D03*
X279000Y4516000D03*
X230000Y4531000D03*
X179000Y4540000D03*
X100000Y4542000D03*
X254000Y4555000D03*
X230000D03*
X100000Y4568000D03*
X242000Y4576000D03*
X68000Y4581000D03*
Y4627000D03*
Y4673000D03*
Y4719000D03*
X167000Y4726000D03*
X118000Y4727000D03*
X145000Y4753000D03*
X201000D03*
X229000D03*
X257000D03*
X32000D03*
X60000D03*
X117000D03*
X173000D03*
X287000Y4972000D03*
Y4944000D03*
X406000Y4936000D03*
X428000D03*
X505000Y4925000D03*
X287000Y4916000D03*
X379000Y4889000D03*
X287000Y4888000D03*
X379000Y4868000D03*
X287000Y4860000D03*
X430000Y4846000D03*
X287000Y4832000D03*
X392000Y4812000D03*
X328000Y4808000D03*
X287000Y4804000D03*
X403000Y4789000D03*
X328000Y4784000D03*
X350000D03*
X372000D03*
X287000Y4776000D03*
X516000Y4769020D03*
X298000Y4715000D03*
X408000D03*
X374000Y4714000D03*
X507800Y4709300D03*
X503310Y4673460D03*
X345000Y4646000D03*
X503300Y4643300D03*
X415000Y4642000D03*
X440800Y4610800D03*
X345000Y4607400D03*
X408000Y4555200D03*
X441000Y4548000D03*
X508300Y4543800D03*
X383300Y4542600D03*
X345000Y4523000D03*
X425300Y4516800D03*
X500300Y4487300D03*
X407000Y4454000D03*
X372000Y4446000D03*
X342000D03*
X411000Y4430000D03*
X342000Y4421000D03*
X315000Y4418700D03*
X342000Y4392000D03*
X285000Y4391000D03*
X502300Y4359300D03*
X342000Y4359000D03*
X314000D03*
X378000Y4358300D03*
X438000Y4358000D03*
X378000Y4327000D03*
X314000D03*
X342000D03*
Y4296300D03*
X353000Y4267700D03*
X424200Y4252000D03*
X389800Y4228900D03*
X440000Y4204000D03*
X362400Y4203000D03*
X503000Y4092000D03*
X403000Y4083000D03*
X286000Y4080000D03*
X345000Y4079000D03*
X426000Y4070000D03*
X677000Y4071000D03*
X725800Y4091300D03*
X586000Y4092000D03*
X660600Y4163900D03*
X769800Y4164300D03*
X747800Y4182300D03*
X725300Y4238300D03*
X575000Y4253000D03*
X549300Y4259300D03*
X627300Y4295800D03*
X549000Y4299000D03*
X722300Y4301300D03*
X701300Y4321300D03*
X567300Y4328300D03*
X595000Y4390000D03*
X627300Y4390300D03*
X738800Y4421300D03*
X595000Y4422000D03*
X537000D03*
Y4452000D03*
X565000D03*
X595000D03*
X627000D03*
X757300Y4487300D03*
X537800Y4515800D03*
X627300Y4516300D03*
X596300D03*
X568300D03*
X568000Y4548000D03*
X627300Y4548300D03*
X596300D03*
Y4578300D03*
X627300Y4579300D03*
X568300Y4579800D03*
X655300Y4588300D03*
X686500Y4588600D03*
X627000Y4611000D03*
X596300Y4611300D03*
X561500Y4622600D03*
X702780Y4646650D03*
X533300Y4674300D03*
X750800Y4698100D03*
X533800Y4708300D03*
X671000Y4744000D03*
X694000D03*
X570000Y4755000D03*
X607000Y4782000D03*
X740000Y4814000D03*
X736000Y4841000D03*
X652000Y4851500D03*
X589000Y4856000D03*
X730000Y4915000D03*
X704000D03*
X558000Y4925000D03*
X658000Y4926000D03*
X902000Y4911000D03*
X833000Y4864000D03*
X965000Y4842000D03*
X848000Y4835000D03*
X965000Y4800000D03*
X874000Y4791000D03*
X852000Y4767000D03*
X827800D03*
X965000Y4740000D03*
Y4658000D03*
X811800Y4623300D03*
X792800Y4607300D03*
X901640Y4564120D03*
X891210Y4538330D03*
X850800Y4516300D03*
X965000Y4516000D03*
X899300Y4501300D03*
X810000Y4430000D03*
X850000Y4410000D03*
X965000Y4406600D03*
X890000Y4390000D03*
X965000Y4265000D03*
Y4218000D03*
X791800Y4201300D03*
X965000Y4186300D03*
X801300Y4146300D03*
X965000Y4139000D03*
X835300Y4127300D03*
X860000Y4127000D03*
X818300Y4108300D03*
X925000Y4077000D03*
X965000D03*
G54D11*
X101000Y4030000D03*
X151000D03*
X201000D03*
X251000D03*
X31000Y4100000D03*
Y4150000D03*
Y4200000D03*
Y4250000D03*
Y4300000D03*
Y4350000D03*
Y4400000D03*
Y4450000D03*
Y4500000D03*
Y4550000D03*
Y4600000D03*
Y4650000D03*
Y4700000D03*
X400130Y4969060D03*
X451000Y4969000D03*
X501000D03*
X351000D03*
X501000Y4030000D03*
X301000D03*
X351000D03*
X401000D03*
X451000D03*
X651000D03*
X601000D03*
X551000D03*
X751000D03*
X701000D03*
X700130Y4969060D03*
X750130D03*
X550130D03*
X600130D03*
X650130D03*
X850130D03*
X900130D03*
X800130D03*
X851000Y4030000D03*
X951000D03*
X901000D03*
X801000D03*
G54D12*
X36000Y4036000D03*
X964000Y4964000D03*
G54D10*
X1135200Y66700D03*
X1092000Y75000D03*
X1185000Y75600D03*
X1161000Y131000D03*
X1076000Y151000D03*
X1275000Y154000D03*
X1168000Y179000D03*
X1191000Y206000D03*
X1076000Y222000D03*
X1152000D03*
X1249000Y246000D03*
X1203100Y253500D03*
X1069000Y282000D03*
X1190000Y311000D03*
X1118700Y316300D03*
X1209000Y327000D03*
X1159000D03*
X1080000Y362000D03*
X1235000Y372000D03*
X1135200Y381000D03*
X1241000Y404000D03*
X1074000Y415000D03*
X1279000Y492000D03*
X1230000Y498000D03*
X1149000Y512000D03*
X1279000Y516000D03*
X1230000Y531000D03*
X1179000Y540000D03*
X1100000Y542000D03*
X1254000Y555000D03*
X1230000D03*
X1100000Y568000D03*
X1242000Y576000D03*
X1068000Y581000D03*
Y627000D03*
Y673000D03*
Y719000D03*
X1167000Y726000D03*
X1118000Y727000D03*
X1145000Y753000D03*
X1201000D03*
X1229000D03*
X1257000D03*
X1032000D03*
X1060000D03*
X1117000D03*
X1173000D03*
X1287000Y972000D03*
Y944000D03*
X1406000Y936000D03*
X1428000D03*
X1505000Y925000D03*
X1287000Y916000D03*
X1379000Y889000D03*
X1287000Y888000D03*
X1379000Y868000D03*
X1287000Y860000D03*
X1430000Y846000D03*
X1287000Y832000D03*
X1392000Y812000D03*
X1328000Y808000D03*
X1287000Y804000D03*
X1403000Y789000D03*
X1328000Y784000D03*
X1350000D03*
X1372000D03*
X1287000Y776000D03*
X1516000Y769020D03*
X1298000Y715000D03*
X1408000D03*
X1374000Y714000D03*
X1507800Y709300D03*
X1503310Y673460D03*
X1345000Y646000D03*
X1503300Y643300D03*
X1415000Y642000D03*
X1440800Y610800D03*
X1345000Y607400D03*
X1408000Y555200D03*
X1441000Y548000D03*
X1508300Y543800D03*
X1383300Y542600D03*
X1345000Y523000D03*
X1425300Y516800D03*
X1500300Y487300D03*
X1407000Y454000D03*
X1372000Y446000D03*
X1342000D03*
X1411000Y430000D03*
X1342000Y421000D03*
X1315000Y418700D03*
X1342000Y392000D03*
X1285000Y391000D03*
X1502300Y359300D03*
X1342000Y359000D03*
X1314000D03*
X1378000Y358300D03*
X1438000Y358000D03*
X1378000Y327000D03*
X1314000D03*
X1342000D03*
Y296300D03*
X1353000Y267700D03*
X1424200Y252000D03*
X1389800Y228900D03*
X1440000Y204000D03*
X1362400Y203000D03*
X1503000Y92000D03*
X1403000Y83000D03*
X1286000Y80000D03*
X1345000Y79000D03*
X1426000Y70000D03*
X1677000Y71000D03*
X1725800Y91300D03*
X1586000Y92000D03*
X1660600Y163900D03*
X1769800Y164300D03*
X1747800Y182300D03*
X1725300Y238300D03*
X1575000Y253000D03*
X1549300Y259300D03*
X1627300Y295800D03*
X1549000Y299000D03*
X1722300Y301300D03*
X1701300Y321300D03*
X1567300Y328300D03*
X1595000Y390000D03*
X1627300Y390300D03*
X1738800Y421300D03*
X1595000Y422000D03*
X1537000D03*
Y452000D03*
X1565000D03*
X1595000D03*
X1627000D03*
X1757300Y487300D03*
X1537800Y515800D03*
X1627300Y516300D03*
X1596300D03*
X1568300D03*
X1568000Y548000D03*
X1627300Y548300D03*
X1596300D03*
Y578300D03*
X1627300Y579300D03*
X1568300Y579800D03*
X1655300Y588300D03*
X1686500Y588600D03*
X1627000Y611000D03*
X1596300Y611300D03*
X1561500Y622600D03*
X1702780Y646650D03*
X1533300Y674300D03*
X1750800Y698100D03*
X1533800Y708300D03*
X1671000Y744000D03*
X1694000D03*
X1570000Y755000D03*
X1607000Y782000D03*
X1740000Y814000D03*
X1736000Y841000D03*
X1652000Y851500D03*
X1589000Y856000D03*
X1730000Y915000D03*
X1704000D03*
X1558000Y925000D03*
X1658000Y926000D03*
X1902000Y911000D03*
X1833000Y864000D03*
X1965000Y842000D03*
X1848000Y835000D03*
X1965000Y800000D03*
X1874000Y791000D03*
X1852000Y767000D03*
X1827800D03*
X1965000Y740000D03*
Y658000D03*
X1811800Y623300D03*
X1792800Y607300D03*
X1901640Y564120D03*
X1891210Y538330D03*
X1850800Y516300D03*
X1965000Y516000D03*
X1899300Y501300D03*
X1810000Y430000D03*
X1850000Y410000D03*
X1965000Y406600D03*
X1890000Y390000D03*
X1965000Y265000D03*
Y218000D03*
X1791800Y201300D03*
X1965000Y186300D03*
X1801300Y146300D03*
X1965000Y139000D03*
X1835300Y127300D03*
X1860000Y127000D03*
X1818300Y108300D03*
X1925000Y77000D03*
X1965000D03*
G54D11*
X1101000Y30000D03*
X1151000D03*
X1201000D03*
X1251000D03*
X1031000Y100000D03*
Y150000D03*
Y200000D03*
Y250000D03*
Y300000D03*
Y350000D03*
Y400000D03*
Y450000D03*
Y500000D03*
Y550000D03*
Y600000D03*
Y650000D03*
Y700000D03*
X1400130Y969060D03*
X1451000Y969000D03*
X1501000D03*
X1351000D03*
X1501000Y30000D03*
X1301000D03*
X1351000D03*
X1401000D03*
X1451000D03*
X1651000D03*
X1601000D03*
X1551000D03*
X1751000D03*
X1701000D03*
X1700130Y969060D03*
X1750130D03*
X1550130D03*
X1600130D03*
X1650130D03*
X1850130D03*
X1900130D03*
X1800130D03*
X1851000Y30000D03*
X1951000D03*
X1901000D03*
X1801000D03*
G54D12*
X1036000Y36000D03*
X1964000Y964000D03*
G54D10*
X1135200Y1066700D03*
X1092000Y1075000D03*
X1185000Y1075600D03*
X1161000Y1131000D03*
X1076000Y1151000D03*
X1275000Y1154000D03*
X1168000Y1179000D03*
X1191000Y1206000D03*
X1076000Y1222000D03*
X1152000D03*
X1249000Y1246000D03*
X1203100Y1253500D03*
X1069000Y1282000D03*
X1190000Y1311000D03*
X1118700Y1316300D03*
X1209000Y1327000D03*
X1159000D03*
X1080000Y1362000D03*
X1235000Y1372000D03*
X1135200Y1381000D03*
X1241000Y1404000D03*
X1074000Y1415000D03*
X1279000Y1492000D03*
X1230000Y1498000D03*
X1149000Y1512000D03*
X1279000Y1516000D03*
X1230000Y1531000D03*
X1179000Y1540000D03*
X1100000Y1542000D03*
X1254000Y1555000D03*
X1230000D03*
X1100000Y1568000D03*
X1242000Y1576000D03*
X1068000Y1581000D03*
Y1627000D03*
Y1673000D03*
Y1719000D03*
X1167000Y1726000D03*
X1118000Y1727000D03*
X1145000Y1753000D03*
X1201000D03*
X1229000D03*
X1257000D03*
X1032000D03*
X1060000D03*
X1117000D03*
X1173000D03*
X1287000Y1972000D03*
Y1944000D03*
X1406000Y1936000D03*
X1428000D03*
X1505000Y1925000D03*
X1287000Y1916000D03*
X1379000Y1889000D03*
X1287000Y1888000D03*
X1379000Y1868000D03*
X1287000Y1860000D03*
X1430000Y1846000D03*
X1287000Y1832000D03*
X1392000Y1812000D03*
X1328000Y1808000D03*
X1287000Y1804000D03*
X1403000Y1789000D03*
X1328000Y1784000D03*
X1350000D03*
X1372000D03*
X1287000Y1776000D03*
X1516000Y1769020D03*
X1298000Y1715000D03*
X1408000D03*
X1374000Y1714000D03*
X1507800Y1709300D03*
X1503310Y1673460D03*
X1345000Y1646000D03*
X1503300Y1643300D03*
X1415000Y1642000D03*
X1440800Y1610800D03*
X1345000Y1607400D03*
X1408000Y1555200D03*
X1441000Y1548000D03*
X1508300Y1543800D03*
X1383300Y1542600D03*
X1345000Y1523000D03*
X1425300Y1516800D03*
X1500300Y1487300D03*
X1407000Y1454000D03*
X1372000Y1446000D03*
X1342000D03*
X1411000Y1430000D03*
X1342000Y1421000D03*
X1315000Y1418700D03*
X1342000Y1392000D03*
X1285000Y1391000D03*
X1502300Y1359300D03*
X1342000Y1359000D03*
X1314000D03*
X1378000Y1358300D03*
X1438000Y1358000D03*
X1378000Y1327000D03*
X1314000D03*
X1342000D03*
Y1296300D03*
X1353000Y1267700D03*
X1424200Y1252000D03*
X1389800Y1228900D03*
X1440000Y1204000D03*
X1362400Y1203000D03*
X1503000Y1092000D03*
X1403000Y1083000D03*
X1286000Y1080000D03*
X1345000Y1079000D03*
X1426000Y1070000D03*
X1677000Y1071000D03*
X1725800Y1091300D03*
X1586000Y1092000D03*
X1660600Y1163900D03*
X1769800Y1164300D03*
X1747800Y1182300D03*
X1725300Y1238300D03*
X1575000Y1253000D03*
X1549300Y1259300D03*
X1627300Y1295800D03*
X1549000Y1299000D03*
X1722300Y1301300D03*
X1701300Y1321300D03*
X1567300Y1328300D03*
X1595000Y1390000D03*
X1627300Y1390300D03*
X1738800Y1421300D03*
X1595000Y1422000D03*
X1537000D03*
Y1452000D03*
X1565000D03*
X1595000D03*
X1627000D03*
X1757300Y1487300D03*
X1537800Y1515800D03*
X1627300Y1516300D03*
X1596300D03*
X1568300D03*
X1568000Y1548000D03*
X1627300Y1548300D03*
X1596300D03*
Y1578300D03*
X1627300Y1579300D03*
X1568300Y1579800D03*
X1655300Y1588300D03*
X1686500Y1588600D03*
X1627000Y1611000D03*
X1596300Y1611300D03*
X1561500Y1622600D03*
X1702780Y1646650D03*
X1533300Y1674300D03*
X1750800Y1698100D03*
X1533800Y1708300D03*
X1671000Y1744000D03*
X1694000D03*
X1570000Y1755000D03*
X1607000Y1782000D03*
X1740000Y1814000D03*
X1736000Y1841000D03*
X1652000Y1851500D03*
X1589000Y1856000D03*
X1730000Y1915000D03*
X1704000D03*
X1558000Y1925000D03*
X1658000Y1926000D03*
X1902000Y1911000D03*
X1833000Y1864000D03*
X1965000Y1842000D03*
X1848000Y1835000D03*
X1965000Y1800000D03*
X1874000Y1791000D03*
X1852000Y1767000D03*
X1827800D03*
X1965000Y1740000D03*
Y1658000D03*
X1811800Y1623300D03*
X1792800Y1607300D03*
X1901640Y1564120D03*
X1891210Y1538330D03*
X1850800Y1516300D03*
X1965000Y1516000D03*
X1899300Y1501300D03*
X1810000Y1430000D03*
X1850000Y1410000D03*
X1965000Y1406600D03*
X1890000Y1390000D03*
X1965000Y1265000D03*
Y1218000D03*
X1791800Y1201300D03*
X1965000Y1186300D03*
X1801300Y1146300D03*
X1965000Y1139000D03*
X1835300Y1127300D03*
X1860000Y1127000D03*
X1818300Y1108300D03*
X1925000Y1077000D03*
X1965000D03*
G54D11*
X1101000Y1030000D03*
X1151000D03*
X1201000D03*
X1251000D03*
X1031000Y1100000D03*
Y1150000D03*
Y1200000D03*
Y1250000D03*
Y1300000D03*
Y1350000D03*
Y1400000D03*
Y1450000D03*
Y1500000D03*
Y1550000D03*
Y1600000D03*
Y1650000D03*
Y1700000D03*
X1400130Y1969060D03*
X1451000Y1969000D03*
X1501000D03*
X1351000D03*
X1501000Y1030000D03*
X1301000D03*
X1351000D03*
X1401000D03*
X1451000D03*
X1651000D03*
X1601000D03*
X1551000D03*
X1751000D03*
X1701000D03*
X1700130Y1969060D03*
X1750130D03*
X1550130D03*
X1600130D03*
X1650130D03*
X1850130D03*
X1900130D03*
X1800130D03*
X1851000Y1030000D03*
X1951000D03*
X1901000D03*
X1801000D03*
G54D12*
X1036000Y1036000D03*
X1964000Y1964000D03*
G54D10*
X1135200Y2066700D03*
X1092000Y2075000D03*
X1185000Y2075600D03*
X1161000Y2131000D03*
X1076000Y2151000D03*
X1275000Y2154000D03*
X1168000Y2179000D03*
X1191000Y2206000D03*
X1076000Y2222000D03*
X1152000D03*
X1249000Y2246000D03*
X1203100Y2253500D03*
X1069000Y2282000D03*
X1190000Y2311000D03*
X1118700Y2316300D03*
X1209000Y2327000D03*
X1159000D03*
X1080000Y2362000D03*
X1235000Y2372000D03*
X1135200Y2381000D03*
X1241000Y2404000D03*
X1074000Y2415000D03*
X1279000Y2492000D03*
X1230000Y2498000D03*
X1149000Y2512000D03*
X1279000Y2516000D03*
X1230000Y2531000D03*
X1179000Y2540000D03*
X1100000Y2542000D03*
X1254000Y2555000D03*
X1230000D03*
X1100000Y2568000D03*
X1242000Y2576000D03*
X1068000Y2581000D03*
Y2627000D03*
Y2673000D03*
Y2719000D03*
X1167000Y2726000D03*
X1118000Y2727000D03*
X1145000Y2753000D03*
X1201000D03*
X1229000D03*
X1257000D03*
X1032000D03*
X1060000D03*
X1117000D03*
X1173000D03*
X1287000Y2972000D03*
Y2944000D03*
X1406000Y2936000D03*
X1428000D03*
X1505000Y2925000D03*
X1287000Y2916000D03*
X1379000Y2889000D03*
X1287000Y2888000D03*
X1379000Y2868000D03*
X1287000Y2860000D03*
X1430000Y2846000D03*
X1287000Y2832000D03*
X1392000Y2812000D03*
X1328000Y2808000D03*
X1287000Y2804000D03*
X1403000Y2789000D03*
X1328000Y2784000D03*
X1350000D03*
X1372000D03*
X1287000Y2776000D03*
X1516000Y2769020D03*
X1298000Y2715000D03*
X1408000D03*
X1374000Y2714000D03*
X1507800Y2709300D03*
X1503310Y2673460D03*
X1345000Y2646000D03*
X1503300Y2643300D03*
X1415000Y2642000D03*
X1440800Y2610800D03*
X1345000Y2607400D03*
X1408000Y2555200D03*
X1441000Y2548000D03*
X1508300Y2543800D03*
X1383300Y2542600D03*
X1345000Y2523000D03*
X1425300Y2516800D03*
X1500300Y2487300D03*
X1407000Y2454000D03*
X1372000Y2446000D03*
X1342000D03*
X1411000Y2430000D03*
X1342000Y2421000D03*
X1315000Y2418700D03*
X1342000Y2392000D03*
X1285000Y2391000D03*
X1502300Y2359300D03*
X1342000Y2359000D03*
X1314000D03*
X1378000Y2358300D03*
X1438000Y2358000D03*
X1378000Y2327000D03*
X1314000D03*
X1342000D03*
Y2296300D03*
X1353000Y2267700D03*
X1424200Y2252000D03*
X1389800Y2228900D03*
X1440000Y2204000D03*
X1362400Y2203000D03*
X1503000Y2092000D03*
X1403000Y2083000D03*
X1286000Y2080000D03*
X1345000Y2079000D03*
X1426000Y2070000D03*
X1677000Y2071000D03*
X1725800Y2091300D03*
X1586000Y2092000D03*
X1660600Y2163900D03*
X1769800Y2164300D03*
X1747800Y2182300D03*
X1725300Y2238300D03*
X1575000Y2253000D03*
X1549300Y2259300D03*
X1627300Y2295800D03*
X1549000Y2299000D03*
X1722300Y2301300D03*
X1701300Y2321300D03*
X1567300Y2328300D03*
X1595000Y2390000D03*
X1627300Y2390300D03*
X1738800Y2421300D03*
X1595000Y2422000D03*
X1537000D03*
Y2452000D03*
X1565000D03*
X1595000D03*
X1627000D03*
X1757300Y2487300D03*
X1537800Y2515800D03*
X1627300Y2516300D03*
X1596300D03*
X1568300D03*
X1568000Y2548000D03*
X1627300Y2548300D03*
X1596300D03*
Y2578300D03*
X1627300Y2579300D03*
X1568300Y2579800D03*
X1655300Y2588300D03*
X1686500Y2588600D03*
X1627000Y2611000D03*
X1596300Y2611300D03*
X1561500Y2622600D03*
X1702780Y2646650D03*
X1533300Y2674300D03*
X1750800Y2698100D03*
X1533800Y2708300D03*
X1671000Y2744000D03*
X1694000D03*
X1570000Y2755000D03*
X1607000Y2782000D03*
X1740000Y2814000D03*
X1736000Y2841000D03*
X1652000Y2851500D03*
X1589000Y2856000D03*
X1730000Y2915000D03*
X1704000D03*
X1558000Y2925000D03*
X1658000Y2926000D03*
X1902000Y2911000D03*
X1833000Y2864000D03*
X1965000Y2842000D03*
X1848000Y2835000D03*
X1965000Y2800000D03*
X1874000Y2791000D03*
X1852000Y2767000D03*
X1827800D03*
X1965000Y2740000D03*
Y2658000D03*
X1811800Y2623300D03*
X1792800Y2607300D03*
X1901640Y2564120D03*
X1891210Y2538330D03*
X1850800Y2516300D03*
X1965000Y2516000D03*
X1899300Y2501300D03*
X1810000Y2430000D03*
X1850000Y2410000D03*
X1965000Y2406600D03*
X1890000Y2390000D03*
X1965000Y2265000D03*
Y2218000D03*
X1791800Y2201300D03*
X1965000Y2186300D03*
X1801300Y2146300D03*
X1965000Y2139000D03*
X1835300Y2127300D03*
X1860000Y2127000D03*
X1818300Y2108300D03*
X1925000Y2077000D03*
X1965000D03*
G54D11*
X1101000Y2030000D03*
X1151000D03*
X1201000D03*
X1251000D03*
X1031000Y2100000D03*
Y2150000D03*
Y2200000D03*
Y2250000D03*
Y2300000D03*
Y2350000D03*
Y2400000D03*
Y2450000D03*
Y2500000D03*
Y2550000D03*
Y2600000D03*
Y2650000D03*
Y2700000D03*
X1400130Y2969060D03*
X1451000Y2969000D03*
X1501000D03*
X1351000D03*
X1501000Y2030000D03*
X1301000D03*
X1351000D03*
X1401000D03*
X1451000D03*
X1651000D03*
X1601000D03*
X1551000D03*
X1751000D03*
X1701000D03*
X1700130Y2969060D03*
X1750130D03*
X1550130D03*
X1600130D03*
X1650130D03*
X1850130D03*
X1900130D03*
X1800130D03*
X1851000Y2030000D03*
X1951000D03*
X1901000D03*
X1801000D03*
G54D12*
X1036000Y2036000D03*
X1964000Y2964000D03*
G54D10*
X1135200Y3066700D03*
X1092000Y3075000D03*
X1185000Y3075600D03*
X1161000Y3131000D03*
X1076000Y3151000D03*
X1275000Y3154000D03*
X1168000Y3179000D03*
X1191000Y3206000D03*
X1076000Y3222000D03*
X1152000D03*
X1249000Y3246000D03*
X1203100Y3253500D03*
X1069000Y3282000D03*
X1190000Y3311000D03*
X1118700Y3316300D03*
X1209000Y3327000D03*
X1159000D03*
X1080000Y3362000D03*
X1235000Y3372000D03*
X1135200Y3381000D03*
X1241000Y3404000D03*
X1074000Y3415000D03*
X1279000Y3492000D03*
X1230000Y3498000D03*
X1149000Y3512000D03*
X1279000Y3516000D03*
X1230000Y3531000D03*
X1179000Y3540000D03*
X1100000Y3542000D03*
X1254000Y3555000D03*
X1230000D03*
X1100000Y3568000D03*
X1242000Y3576000D03*
X1068000Y3581000D03*
Y3627000D03*
Y3673000D03*
Y3719000D03*
X1167000Y3726000D03*
X1118000Y3727000D03*
X1145000Y3753000D03*
X1201000D03*
X1229000D03*
X1257000D03*
X1032000D03*
X1060000D03*
X1117000D03*
X1173000D03*
X1287000Y3972000D03*
Y3944000D03*
X1406000Y3936000D03*
X1428000D03*
X1505000Y3925000D03*
X1287000Y3916000D03*
X1379000Y3889000D03*
X1287000Y3888000D03*
X1379000Y3868000D03*
X1287000Y3860000D03*
X1430000Y3846000D03*
X1287000Y3832000D03*
X1392000Y3812000D03*
X1328000Y3808000D03*
X1287000Y3804000D03*
X1403000Y3789000D03*
X1328000Y3784000D03*
X1350000D03*
X1372000D03*
X1287000Y3776000D03*
X1516000Y3769020D03*
X1298000Y3715000D03*
X1408000D03*
X1374000Y3714000D03*
X1507800Y3709300D03*
X1503310Y3673460D03*
X1345000Y3646000D03*
X1503300Y3643300D03*
X1415000Y3642000D03*
X1440800Y3610800D03*
X1345000Y3607400D03*
X1408000Y3555200D03*
X1441000Y3548000D03*
X1508300Y3543800D03*
X1383300Y3542600D03*
X1345000Y3523000D03*
X1425300Y3516800D03*
X1500300Y3487300D03*
X1407000Y3454000D03*
X1372000Y3446000D03*
X1342000D03*
X1411000Y3430000D03*
X1342000Y3421000D03*
X1315000Y3418700D03*
X1342000Y3392000D03*
X1285000Y3391000D03*
X1502300Y3359300D03*
X1342000Y3359000D03*
X1314000D03*
X1378000Y3358300D03*
X1438000Y3358000D03*
X1378000Y3327000D03*
X1314000D03*
X1342000D03*
Y3296300D03*
X1353000Y3267700D03*
X1424200Y3252000D03*
X1389800Y3228900D03*
X1440000Y3204000D03*
X1362400Y3203000D03*
X1503000Y3092000D03*
X1403000Y3083000D03*
X1286000Y3080000D03*
X1345000Y3079000D03*
X1426000Y3070000D03*
X1677000Y3071000D03*
X1725800Y3091300D03*
X1586000Y3092000D03*
X1660600Y3163900D03*
X1769800Y3164300D03*
X1747800Y3182300D03*
X1725300Y3238300D03*
X1575000Y3253000D03*
X1549300Y3259300D03*
X1627300Y3295800D03*
X1549000Y3299000D03*
X1722300Y3301300D03*
X1701300Y3321300D03*
X1567300Y3328300D03*
X1595000Y3390000D03*
X1627300Y3390300D03*
X1738800Y3421300D03*
X1595000Y3422000D03*
X1537000D03*
Y3452000D03*
X1565000D03*
X1595000D03*
X1627000D03*
X1757300Y3487300D03*
X1537800Y3515800D03*
X1627300Y3516300D03*
X1596300D03*
X1568300D03*
X1568000Y3548000D03*
X1627300Y3548300D03*
X1596300D03*
Y3578300D03*
X1627300Y3579300D03*
X1568300Y3579800D03*
X1655300Y3588300D03*
X1686500Y3588600D03*
X1627000Y3611000D03*
X1596300Y3611300D03*
X1561500Y3622600D03*
X1702780Y3646650D03*
X1533300Y3674300D03*
X1750800Y3698100D03*
X1533800Y3708300D03*
X1671000Y3744000D03*
X1694000D03*
X1570000Y3755000D03*
X1607000Y3782000D03*
X1740000Y3814000D03*
X1736000Y3841000D03*
X1652000Y3851500D03*
X1589000Y3856000D03*
X1730000Y3915000D03*
X1704000D03*
X1558000Y3925000D03*
X1658000Y3926000D03*
X1902000Y3911000D03*
X1833000Y3864000D03*
X1965000Y3842000D03*
X1848000Y3835000D03*
X1965000Y3800000D03*
X1874000Y3791000D03*
X1852000Y3767000D03*
X1827800D03*
X1965000Y3740000D03*
Y3658000D03*
X1811800Y3623300D03*
X1792800Y3607300D03*
X1901640Y3564120D03*
X1891210Y3538330D03*
X1850800Y3516300D03*
X1965000Y3516000D03*
X1899300Y3501300D03*
X1810000Y3430000D03*
X1850000Y3410000D03*
X1965000Y3406600D03*
X1890000Y3390000D03*
X1965000Y3265000D03*
Y3218000D03*
X1791800Y3201300D03*
X1965000Y3186300D03*
X1801300Y3146300D03*
X1965000Y3139000D03*
X1835300Y3127300D03*
X1860000Y3127000D03*
X1818300Y3108300D03*
X1925000Y3077000D03*
X1965000D03*
G54D11*
X1101000Y3030000D03*
X1151000D03*
X1201000D03*
X1251000D03*
X1031000Y3100000D03*
Y3150000D03*
Y3200000D03*
Y3250000D03*
Y3300000D03*
Y3350000D03*
Y3400000D03*
Y3450000D03*
Y3500000D03*
Y3550000D03*
Y3600000D03*
Y3650000D03*
Y3700000D03*
X1400130Y3969060D03*
X1451000Y3969000D03*
X1501000D03*
X1351000D03*
X1501000Y3030000D03*
X1301000D03*
X1351000D03*
X1401000D03*
X1451000D03*
X1651000D03*
X1601000D03*
X1551000D03*
X1751000D03*
X1701000D03*
X1700130Y3969060D03*
X1750130D03*
X1550130D03*
X1600130D03*
X1650130D03*
X1850130D03*
X1900130D03*
X1800130D03*
X1851000Y3030000D03*
X1951000D03*
X1901000D03*
X1801000D03*
G54D12*
X1036000Y3036000D03*
X1964000Y3964000D03*
G54D10*
X1135200Y4066700D03*
X1092000Y4075000D03*
X1185000Y4075600D03*
X1161000Y4131000D03*
X1076000Y4151000D03*
X1275000Y4154000D03*
X1168000Y4179000D03*
X1191000Y4206000D03*
X1076000Y4222000D03*
X1152000D03*
X1249000Y4246000D03*
X1203100Y4253500D03*
X1069000Y4282000D03*
X1190000Y4311000D03*
X1118700Y4316300D03*
X1209000Y4327000D03*
X1159000D03*
X1080000Y4362000D03*
X1235000Y4372000D03*
X1135200Y4381000D03*
X1241000Y4404000D03*
X1074000Y4415000D03*
X1279000Y4492000D03*
X1230000Y4498000D03*
X1149000Y4512000D03*
X1279000Y4516000D03*
X1230000Y4531000D03*
X1179000Y4540000D03*
X1100000Y4542000D03*
X1254000Y4555000D03*
X1230000D03*
X1100000Y4568000D03*
X1242000Y4576000D03*
X1068000Y4581000D03*
Y4627000D03*
Y4673000D03*
Y4719000D03*
X1167000Y4726000D03*
X1118000Y4727000D03*
X1145000Y4753000D03*
X1201000D03*
X1229000D03*
X1257000D03*
X1032000D03*
X1060000D03*
X1117000D03*
X1173000D03*
X1287000Y4972000D03*
Y4944000D03*
X1406000Y4936000D03*
X1428000D03*
X1505000Y4925000D03*
X1287000Y4916000D03*
X1379000Y4889000D03*
X1287000Y4888000D03*
X1379000Y4868000D03*
X1287000Y4860000D03*
X1430000Y4846000D03*
X1287000Y4832000D03*
X1392000Y4812000D03*
X1328000Y4808000D03*
X1287000Y4804000D03*
X1403000Y4789000D03*
X1328000Y4784000D03*
X1350000D03*
X1372000D03*
X1287000Y4776000D03*
X1516000Y4769020D03*
X1298000Y4715000D03*
X1408000D03*
X1374000Y4714000D03*
X1507800Y4709300D03*
X1503310Y4673460D03*
X1345000Y4646000D03*
X1503300Y4643300D03*
X1415000Y4642000D03*
X1440800Y4610800D03*
X1345000Y4607400D03*
X1408000Y4555200D03*
X1441000Y4548000D03*
X1508300Y4543800D03*
X1383300Y4542600D03*
X1345000Y4523000D03*
X1425300Y4516800D03*
X1500300Y4487300D03*
X1407000Y4454000D03*
X1372000Y4446000D03*
X1342000D03*
X1411000Y4430000D03*
X1342000Y4421000D03*
X1315000Y4418700D03*
X1342000Y4392000D03*
X1285000Y4391000D03*
X1502300Y4359300D03*
X1342000Y4359000D03*
X1314000D03*
X1378000Y4358300D03*
X1438000Y4358000D03*
X1378000Y4327000D03*
X1314000D03*
X1342000D03*
Y4296300D03*
X1353000Y4267700D03*
X1424200Y4252000D03*
X1389800Y4228900D03*
X1440000Y4204000D03*
X1362400Y4203000D03*
X1503000Y4092000D03*
X1403000Y4083000D03*
X1286000Y4080000D03*
X1345000Y4079000D03*
X1426000Y4070000D03*
X1677000Y4071000D03*
X1725800Y4091300D03*
X1586000Y4092000D03*
X1660600Y4163900D03*
X1769800Y4164300D03*
X1747800Y4182300D03*
X1725300Y4238300D03*
X1575000Y4253000D03*
X1549300Y4259300D03*
X1627300Y4295800D03*
X1549000Y4299000D03*
X1722300Y4301300D03*
X1701300Y4321300D03*
X1567300Y4328300D03*
X1595000Y4390000D03*
X1627300Y4390300D03*
X1738800Y4421300D03*
X1595000Y4422000D03*
X1537000D03*
Y4452000D03*
X1565000D03*
X1595000D03*
X1627000D03*
X1757300Y4487300D03*
X1537800Y4515800D03*
X1627300Y4516300D03*
X1596300D03*
X1568300D03*
X1568000Y4548000D03*
X1627300Y4548300D03*
X1596300D03*
Y4578300D03*
X1627300Y4579300D03*
X1568300Y4579800D03*
X1655300Y4588300D03*
X1686500Y4588600D03*
X1627000Y4611000D03*
X1596300Y4611300D03*
X1561500Y4622600D03*
X1702780Y4646650D03*
X1533300Y4674300D03*
X1750800Y4698100D03*
X1533800Y4708300D03*
X1671000Y4744000D03*
X1694000D03*
X1570000Y4755000D03*
X1607000Y4782000D03*
X1740000Y4814000D03*
X1736000Y4841000D03*
X1652000Y4851500D03*
X1589000Y4856000D03*
X1730000Y4915000D03*
X1704000D03*
X1558000Y4925000D03*
X1658000Y4926000D03*
X1902000Y4911000D03*
X1833000Y4864000D03*
X1965000Y4842000D03*
X1848000Y4835000D03*
X1965000Y4800000D03*
X1874000Y4791000D03*
X1852000Y4767000D03*
X1827800D03*
X1965000Y4740000D03*
Y4658000D03*
X1811800Y4623300D03*
X1792800Y4607300D03*
X1901640Y4564120D03*
X1891210Y4538330D03*
X1850800Y4516300D03*
X1965000Y4516000D03*
X1899300Y4501300D03*
X1810000Y4430000D03*
X1850000Y4410000D03*
X1965000Y4406600D03*
X1890000Y4390000D03*
X1965000Y4265000D03*
Y4218000D03*
X1791800Y4201300D03*
X1965000Y4186300D03*
X1801300Y4146300D03*
X1965000Y4139000D03*
X1835300Y4127300D03*
X1860000Y4127000D03*
X1818300Y4108300D03*
X1925000Y4077000D03*
X1965000D03*
G54D11*
X1101000Y4030000D03*
X1151000D03*
X1201000D03*
X1251000D03*
X1031000Y4100000D03*
Y4150000D03*
Y4200000D03*
Y4250000D03*
Y4300000D03*
Y4350000D03*
Y4400000D03*
Y4450000D03*
Y4500000D03*
Y4550000D03*
Y4600000D03*
Y4650000D03*
Y4700000D03*
X1400130Y4969060D03*
X1451000Y4969000D03*
X1501000D03*
X1351000D03*
X1501000Y4030000D03*
X1301000D03*
X1351000D03*
X1401000D03*
X1451000D03*
X1651000D03*
X1601000D03*
X1551000D03*
X1751000D03*
X1701000D03*
X1700130Y4969060D03*
X1750130D03*
X1550130D03*
X1600130D03*
X1650130D03*
X1850130D03*
X1900130D03*
X1800130D03*
X1851000Y4030000D03*
X1951000D03*
X1901000D03*
X1801000D03*
G54D12*
X1036000Y4036000D03*
X1964000Y4964000D03*
G54D13*
X-98425Y275591D03*
G54D13*
X2098425Y196850D03*
G54D13*
X-98425Y4803149D03*
X2098425D03*
M02*
